# xmcd
#
# Track frame offsets: 
#        150
#        13846
#        27568
#        40555
#        54591
#        68994
#        81539
#        96176
#        110660
#        124723
#        139915
#        155088
#        167553
#        183080
#        195958
#        210452
#        223419
#        235744
#        248447
#        261383
#        274912
#        289406
#
# Disc length: 4040 seconds
#
# Revision: 0
# Processed by: cddbd v1.5.1PL0 Copyright (c) Steve Scherf et al.
# Submitted via: ExactAudioCopy v0.95a5
#
DISCID=4b0fc616
DTITLE=Leroy Carr - Sloppy Drunk [CD1]
DYEAR=1998
DGENRE=Blues
TTITLE0=How Long, How Long Blues
TTITLE1=Tennesse Blues
TTITLE2=You Got To Reap What You Sow
TTITLE3=Low Down Dirty Blues
TTITLE4=Box Car Blues
TTITLE5=How Long, How Long Blues - Part 2
TTITLE6=Baby Don't You Love Me No More
TTITLE7=Tired Of Your Low Down Ways
TTITLE8=Prison Bound Blues
TTITLE9=Straight Alky Blues - Part 1
TTITLE10=Straight Alky Blues - Part 2
TTITLE11=Naptown Blues
TTITLE12=Gettin' All Wet
TTITLE13=Just Worryin' Blues
TTITLE14=Christmas In Jail - Ain't It A Pain
TTITLE15=Prison Cell Blues
TTITLE16=Papa Wants A Cookie
TTITLE17=Memphis Town
TTITLE18=The Dirty Dozen
TTITLE19=Sloppy Drunk Blues
TTITLE20=Long Road Blues
TTITLE21=Four Day Rider
EXTD=
EXTT0=
EXTT1=
EXTT2=
EXTT3=
EXTT4=
EXTT5=
EXTT6=
EXTT7=
EXTT8=
EXTT9=
EXTT10=
EXTT11=
EXTT12=
EXTT13=
EXTT14=
EXTT15=
EXTT16=
EXTT17=
EXTT18=
EXTT19=
EXTT20=
EXTT21=
PLAYORDER=
